<svg xmlns="http://www.w3.org/2000/svg" width="820" height="460" viewBox="0 0 820 460">
<rect width="100%" height="100%" fill="white"/>
<text x="410.0" y="30" text-anchor="middle" font-family="Arial" font-size="18" font-weight="700">final fusion event speedups</text>
<text x="18" y="211.0" transform="rotate(-90 18 211.0)" text-anchor="middle" font-family="Arial" font-size="13">speedup (x)</text>
<line x1="88" y1="58" x2="88" y2="364" stroke="#111827"/>
<line x1="88" y1="364" x2="792" y2="364" stroke="#111827"/>
<line x1="83" y1="364.0" x2="792" y2="364.0" stroke="#e5e7eb"/>
<text x="78" y="368.0" text-anchor="end" font-family="Arial" font-size="11">0.00</text>
<line x1="83" y1="287.5" x2="792" y2="287.5" stroke="#e5e7eb"/>
<text x="78" y="291.5" text-anchor="end" font-family="Arial" font-size="11">0.42</text>
<line x1="83" y1="211.0" x2="792" y2="211.0" stroke="#e5e7eb"/>
<text x="78" y="215.0" text-anchor="end" font-family="Arial" font-size="11">0.85</text>
<line x1="83" y1="134.5" x2="792" y2="134.5" stroke="#e5e7eb"/>
<text x="78" y="138.5" text-anchor="end" font-family="Arial" font-size="11">1.27</text>
<line x1="83" y1="58.0" x2="792" y2="58.0" stroke="#e5e7eb"/>
<text x="78" y="62.0" text-anchor="end" font-family="Arial" font-size="11">1.70</text>
<rect x="112.0" y="104.7" width="202.7" height="259.3" fill="#dc2626"/>
<text x="213.3" y="98.7" text-anchor="middle" font-family="Arial" font-size="11">1.440</text>
<text x="213.3" y="386" text-anchor="middle" font-family="Arial" font-size="11">bias+relu</text>
<rect x="338.7" y="126.3" width="202.7" height="237.7" fill="#dc2626"/>
<text x="440.0" y="120.3" text-anchor="middle" font-family="Arial" font-size="11">1.320</text>
<text x="440.0" y="386" text-anchor="middle" font-family="Arial" font-size="11">residual+ln</text>
<rect x="565.3" y="164.1" width="202.7" height="199.9" fill="#dc2626"/>
<text x="666.7" y="158.1" text-anchor="middle" font-family="Arial" font-size="11">1.110</text>
<text x="666.7" y="386" text-anchor="middle" font-family="Arial" font-size="11">ln bwd+residual</text>
</svg>
