<svg xmlns="http://www.w3.org/2000/svg" width="900" height="480" viewBox="0 0 900 480">
<rect width="100%" height="100%" fill="white"/>
<text x="450.0" y="30" text-anchor="middle" font-family="Arial" font-size="18" font-weight="700">final single-gpu backend comparison</text>
<text x="18" y="217.0" transform="rotate(-90 18 217.0)" text-anchor="middle" font-family="Arial" font-size="13">throughput (m tokens/s)</text>
<line x1="88" y1="60" x2="88" y2="374" stroke="#111827"/>
<line x1="88" y1="374" x2="870" y2="374" stroke="#111827"/>
<line x1="83" y1="374.0" x2="870" y2="374.0" stroke="#e5e7eb"/>
<text x="78" y="378.0" text-anchor="end" font-family="Arial" font-size="11">0.00</text>
<line x1="83" y1="295.5" x2="870" y2="295.5" stroke="#e5e7eb"/>
<text x="78" y="299.5" text-anchor="end" font-family="Arial" font-size="11">0.74</text>
<line x1="83" y1="217.0" x2="870" y2="217.0" stroke="#e5e7eb"/>
<text x="78" y="221.0" text-anchor="end" font-family="Arial" font-size="11">1.47</text>
<line x1="83" y1="138.5" x2="870" y2="138.5" stroke="#e5e7eb"/>
<text x="78" y="142.5" text-anchor="end" font-family="Arial" font-size="11">2.21</text>
<line x1="83" y1="60.0" x2="870" y2="60.0" stroke="#e5e7eb"/>
<text x="78" y="64.0" text-anchor="end" font-family="Arial" font-size="11">2.94</text>
<rect x="124.0" y="118.7" width="104.3" height="255.3" fill="#2563eb"/>
<text x="176.2" y="113.7" text-anchor="middle" font-family="Arial" font-size="10">2.39</text>
<rect x="230.3" y="107.9" width="104.3" height="266.1" fill="#059669"/>
<text x="282.5" y="102.9" text-anchor="middle" font-family="Arial" font-size="10">2.49</text>
<text x="230.3" y="398" text-anchor="middle" font-family="Arial" font-size="12">h128</text>
<rect x="372.7" y="269.0" width="104.3" height="105.0" fill="#2563eb"/>
<text x="424.8" y="264.0" text-anchor="middle" font-family="Arial" font-size="10">0.98</text>
<rect x="479.0" y="203.9" width="104.3" height="170.1" fill="#059669"/>
<text x="531.2" y="198.9" text-anchor="middle" font-family="Arial" font-size="10">1.59</text>
<text x="479.0" y="398" text-anchor="middle" font-family="Arial" font-size="12">h256</text>
<rect x="621.3" y="343.9" width="104.3" height="30.1" fill="#2563eb"/>
<text x="673.5" y="338.9" text-anchor="middle" font-family="Arial" font-size="10">0.28</text>
<rect x="727.7" y="295.9" width="104.3" height="78.1" fill="#059669"/>
<text x="779.8" y="290.9" text-anchor="middle" font-family="Arial" font-size="10">0.73</text>
<text x="727.7" y="398" text-anchor="middle" font-family="Arial" font-size="12">h512</text>
<rect x="98" y="435" width="12" height="12" fill="#2563eb"/>
<text x="116" y="446" font-family="Arial" font-size="12">custom</text>
<rect x="278" y="435" width="12" height="12" fill="#059669"/>
<text x="296" y="446" font-family="Arial" font-size="12">cublas_tc</text>
</svg>
