<svg xmlns="http://www.w3.org/2000/svg" width="820" height="460" viewBox="0 0 820 460">
<rect width="100%" height="100%" fill="white"/>
<text x="410.0" y="30" text-anchor="middle" font-family="Arial" font-size="18" font-weight="700">h128 four-gpu backend crossover</text>
<text x="18" y="211.0" transform="rotate(-90 18 211.0)" text-anchor="middle" font-family="Arial" font-size="13">throughput (m tokens/s)</text>
<line x1="88" y1="58" x2="88" y2="364" stroke="#111827"/>
<line x1="88" y1="364" x2="792" y2="364" stroke="#111827"/>
<line x1="83" y1="364.0" x2="792" y2="364.0" stroke="#e5e7eb"/>
<text x="78" y="368.0" text-anchor="end" font-family="Arial" font-size="11">0.00</text>
<line x1="83" y1="287.5" x2="792" y2="287.5" stroke="#e5e7eb"/>
<text x="78" y="291.5" text-anchor="end" font-family="Arial" font-size="11">1.47</text>
<line x1="83" y1="211.0" x2="792" y2="211.0" stroke="#e5e7eb"/>
<text x="78" y="215.0" text-anchor="end" font-family="Arial" font-size="11">2.93</text>
<line x1="83" y1="134.5" x2="792" y2="134.5" stroke="#e5e7eb"/>
<text x="78" y="138.5" text-anchor="end" font-family="Arial" font-size="11">4.40</text>
<line x1="83" y1="58.0" x2="792" y2="58.0" stroke="#e5e7eb"/>
<text x="78" y="62.0" text-anchor="end" font-family="Arial" font-size="11">5.87</text>
<rect x="112.0" y="163.8" width="146.0" height="200.2" fill="#059669"/>
<text x="185.0" y="157.8" text-anchor="middle" font-family="Arial" font-size="11">3.838</text>
<text x="185.0" y="386" text-anchor="middle" font-family="Arial" font-size="11">cublas_tc blocking</text>
<rect x="282.0" y="159.1" width="146.0" height="204.9" fill="#059669"/>
<text x="355.0" y="153.1" text-anchor="middle" font-family="Arial" font-size="11">3.929</text>
<text x="355.0" y="386" text-anchor="middle" font-family="Arial" font-size="11">cublas_tc overlap</text>
<rect x="452.0" y="112.2" width="146.0" height="251.8" fill="#059669"/>
<text x="525.0" y="106.2" text-anchor="middle" font-family="Arial" font-size="11">4.826</text>
<text x="525.0" y="386" text-anchor="middle" font-family="Arial" font-size="11">custom blocking</text>
<rect x="622.0" y="104.7" width="146.0" height="259.3" fill="#059669"/>
<text x="695.0" y="98.7" text-anchor="middle" font-family="Arial" font-size="11">4.971</text>
<text x="695.0" y="386" text-anchor="middle" font-family="Arial" font-size="11">custom overlap</text>
</svg>
