<svg xmlns="http://www.w3.org/2000/svg" width="820" height="460" viewBox="0 0 820 460">
<rect width="100%" height="100%" fill="white"/>
<text x="410.0" y="30" text-anchor="middle" font-family="Arial" font-size="18" font-weight="700">Single-GPU Framework Baseline</text>
<text x="18" y="215.0" transform="rotate(-90 18 215.0)" text-anchor="middle" font-family="Arial" font-size="13">Throughput (M tokens/s)</text>
<line x1="80" y1="60" x2="80" y2="370" stroke="#111827"/>
<line x1="80" y1="370" x2="790" y2="370" stroke="#111827"/>
<line x1="75" y1="370.0" x2="790" y2="370.0" stroke="#e5e7eb"/>
<text x="70" y="374.0" text-anchor="end" font-family="Arial" font-size="11">0.00</text>
<line x1="75" y1="292.5" x2="790" y2="292.5" stroke="#e5e7eb"/>
<text x="70" y="296.5" text-anchor="end" font-family="Arial" font-size="11">0.67</text>
<line x1="75" y1="215.0" x2="790" y2="215.0" stroke="#e5e7eb"/>
<text x="70" y="219.0" text-anchor="end" font-family="Arial" font-size="11">1.34</text>
<line x1="75" y1="137.5" x2="790" y2="137.5" stroke="#e5e7eb"/>
<text x="70" y="141.5" text-anchor="end" font-family="Arial" font-size="11">2.02</text>
<line x1="75" y1="60.0" x2="790" y2="60.0" stroke="#e5e7eb"/>
<text x="70" y="64.0" text-anchor="end" font-family="Arial" font-size="11">2.69</text>
<rect x="110.0" y="100.4" width="153.0" height="269.6" fill="#2563eb"/>
<text x="186.5" y="95.4" text-anchor="middle" font-family="Arial" font-size="10">2.34</text>
<rect x="265.0" y="271.4" width="153.0" height="98.6" fill="#dc2626"/>
<text x="341.5" y="266.4" text-anchor="middle" font-family="Arial" font-size="10">0.85</text>
<text x="265.0" y="392" text-anchor="middle" font-family="Arial" font-size="12">128</text>
<rect x="450.0" y="264.9" width="153.0" height="105.1" fill="#2563eb"/>
<text x="526.5" y="259.9" text-anchor="middle" font-family="Arial" font-size="10">0.91</text>
<rect x="605.0" y="272.4" width="153.0" height="97.6" fill="#dc2626"/>
<text x="681.5" y="267.4" text-anchor="middle" font-family="Arial" font-size="10">0.85</text>
<text x="605.0" y="392" text-anchor="middle" font-family="Arial" font-size="12">256</text>
<rect x="90" y="416" width="12" height="12" fill="#2563eb"/>
<text x="108" y="426" font-family="Arial" font-size="12">Custom CUDA</text>
<rect x="90" y="434" width="12" height="12" fill="#dc2626"/>
<text x="108" y="444" font-family="Arial" font-size="12">PyTorch</text>
</svg>
