<svg xmlns="http://www.w3.org/2000/svg" width="760" height="430" viewBox="0 0 760 430">
<rect width="100%" height="100%" fill="white"/>
<text x="380.0" y="28" text-anchor="middle" font-family="Arial" font-size="18" font-weight="700">Fusion Microbenchmark Speedups</text>
<text x="18" y="202.5" transform="rotate(-90 18 202.5)" text-anchor="middle" font-family="Arial" font-size="13">Speedup vs unfused</text>
<line x1="80" y1="55" x2="80" y2="350" stroke="#111827"/>
<line x1="80" y1="350" x2="730" y2="350" stroke="#111827"/>
<line x1="75" y1="350.0" x2="730" y2="350.0" stroke="#e5e7eb"/>
<text x="70" y="354.0" text-anchor="end" font-family="Arial" font-size="11">0.00</text>
<line x1="75" y1="276.2" x2="730" y2="276.2" stroke="#e5e7eb"/>
<text x="70" y="280.2" text-anchor="end" font-family="Arial" font-size="11">0.39</text>
<line x1="75" y1="202.5" x2="730" y2="202.5" stroke="#e5e7eb"/>
<text x="70" y="206.5" text-anchor="end" font-family="Arial" font-size="11">0.77</text>
<line x1="75" y1="128.8" x2="730" y2="128.8" stroke="#e5e7eb"/>
<text x="70" y="132.8" text-anchor="end" font-family="Arial" font-size="11">1.16</text>
<line x1="75" y1="55.0" x2="730" y2="55.0" stroke="#e5e7eb"/>
<text x="70" y="59.0" text-anchor="end" font-family="Arial" font-size="11">1.54</text>
<rect x="98.0" y="202.6" width="192.7" height="147.4" fill="#059669"/>
<text x="194.3" y="196.6" text-anchor="middle" font-family="Arial" font-size="11">0.77</text>
<text x="194.3" y="370" text-anchor="middle" font-family="Arial" font-size="11">bias+ReLU</text>
<rect x="308.7" y="93.5" width="192.7" height="256.5" fill="#059669"/>
<text x="405.0" y="87.5" text-anchor="middle" font-family="Arial" font-size="11">1.34</text>
<text x="405.0" y="370" text-anchor="middle" font-family="Arial" font-size="11">residual+LayerNorm fwd</text>
<rect x="519.3" y="145.2" width="192.7" height="204.8" fill="#059669"/>
<text x="615.7" y="139.2" text-anchor="middle" font-family="Arial" font-size="11">1.07</text>
<text x="615.7" y="370" text-anchor="middle" font-family="Arial" font-size="11">LayerNorm bwd+residual</text>
</svg>
