<svg xmlns="http://www.w3.org/2000/svg" width="820" height="460" viewBox="0 0 820 460">
<rect width="100%" height="100%" fill="white"/>
<text x="410.0" y="30" text-anchor="middle" font-family="Arial" font-size="18" font-weight="700">Model Size Sensitivity: Blocking vs Overlap</text>
<text x="18" y="215.0" transform="rotate(-90 18 215.0)" text-anchor="middle" font-family="Arial" font-size="13">Throughput (M tokens/s)</text>
<line x1="80" y1="60" x2="80" y2="370" stroke="#111827"/>
<line x1="80" y1="370" x2="790" y2="370" stroke="#111827"/>
<line x1="75" y1="370.0" x2="790" y2="370.0" stroke="#e5e7eb"/>
<text x="70" y="374.0" text-anchor="end" font-family="Arial" font-size="11">0.00</text>
<line x1="75" y1="292.5" x2="790" y2="292.5" stroke="#e5e7eb"/>
<text x="70" y="296.5" text-anchor="end" font-family="Arial" font-size="11">1.39</text>
<line x1="75" y1="215.0" x2="790" y2="215.0" stroke="#e5e7eb"/>
<text x="70" y="219.0" text-anchor="end" font-family="Arial" font-size="11">2.78</text>
<line x1="75" y1="137.5" x2="790" y2="137.5" stroke="#e5e7eb"/>
<text x="70" y="141.5" text-anchor="end" font-family="Arial" font-size="11">4.17</text>
<line x1="75" y1="60.0" x2="790" y2="60.0" stroke="#e5e7eb"/>
<text x="70" y="64.0" text-anchor="end" font-family="Arial" font-size="11">5.56</text>
<rect x="110.0" y="105.0" width="96.3" height="265.0" fill="#2563eb"/>
<text x="158.2" y="100.0" text-anchor="middle" font-family="Arial" font-size="10">4.75</text>
<rect x="208.3" y="100.4" width="96.3" height="269.6" fill="#dc2626"/>
<text x="256.5" y="95.4" text-anchor="middle" font-family="Arial" font-size="10">4.83</text>
<text x="208.3" y="392" text-anchor="middle" font-family="Arial" font-size="12">128</text>
<rect x="336.7" y="293.5" width="96.3" height="76.5" fill="#2563eb"/>
<text x="384.8" y="288.5" text-anchor="middle" font-family="Arial" font-size="10">1.37</text>
<rect x="435.0" y="273.9" width="96.3" height="96.1" fill="#dc2626"/>
<text x="483.2" y="268.9" text-anchor="middle" font-family="Arial" font-size="10">1.72</text>
<text x="435.0" y="392" text-anchor="middle" font-family="Arial" font-size="12">256</text>
<rect x="563.3" y="341.6" width="96.3" height="28.4" fill="#2563eb"/>
<text x="611.5" y="336.6" text-anchor="middle" font-family="Arial" font-size="10">0.51</text>
<rect x="661.7" y="344.3" width="96.3" height="25.7" fill="#dc2626"/>
<text x="709.8" y="339.3" text-anchor="middle" font-family="Arial" font-size="10">0.46</text>
<text x="661.7" y="392" text-anchor="middle" font-family="Arial" font-size="12">512</text>
<rect x="90" y="416" width="12" height="12" fill="#2563eb"/>
<text x="108" y="426" font-family="Arial" font-size="12">blocking</text>
<rect x="90" y="434" width="12" height="12" fill="#dc2626"/>
<text x="108" y="444" font-family="Arial" font-size="12">overlap</text>
</svg>
