<svg xmlns="http://www.w3.org/2000/svg" width="960" height="600" viewBox="0 0 960 600">
<rect width="100%" height="100%" fill="white"/>
<text x="480.0" y="30" text-anchor="middle" font-family="Arial" font-size="18" font-weight="700">Empirical Roofline: Fusion Kernels and Training Hotspots</text>
<text x="480.0" y="574" text-anchor="middle" font-family="Arial" font-size="13">Arithmetic intensity (FLOP/byte, log scale)</text>
<text x="22" y="282.5" transform="rotate(-90 22 282.5)" text-anchor="middle" font-family="Arial" font-size="13">Performance (GFLOP/s, log scale)</text>
<line x1="90" y1="55" x2="90" y2="510" stroke="#111827"/>
<line x1="90" y1="510" x2="920" y2="510" stroke="#111827"/>
<line x1="126.9" y1="55" x2="126.9" y2="510" stroke="#e5e7eb"/>
<text x="126.9" y="530" text-anchor="middle" font-family="Arial" font-size="11">0.01</text>
<line x1="214.9" y1="55" x2="214.9" y2="510" stroke="#e5e7eb"/>
<text x="214.9" y="530" text-anchor="middle" font-family="Arial" font-size="11">0.03</text>
<line x1="311.3" y1="55" x2="311.3" y2="510" stroke="#e5e7eb"/>
<text x="311.3" y="530" text-anchor="middle" font-family="Arial" font-size="11">0.1</text>
<line x1="399.3" y1="55" x2="399.3" y2="510" stroke="#e5e7eb"/>
<text x="399.3" y="530" text-anchor="middle" font-family="Arial" font-size="11">0.3</text>
<line x1="495.8" y1="55" x2="495.8" y2="510" stroke="#e5e7eb"/>
<text x="495.8" y="530" text-anchor="middle" font-family="Arial" font-size="11">1</text>
<line x1="583.8" y1="55" x2="583.8" y2="510" stroke="#e5e7eb"/>
<text x="583.8" y="530" text-anchor="middle" font-family="Arial" font-size="11">3</text>
<line x1="680.2" y1="55" x2="680.2" y2="510" stroke="#e5e7eb"/>
<text x="680.2" y="530" text-anchor="middle" font-family="Arial" font-size="11">10</text>
<line x1="768.2" y1="55" x2="768.2" y2="510" stroke="#e5e7eb"/>
<text x="768.2" y="530" text-anchor="middle" font-family="Arial" font-size="11">30</text>
<line x1="864.7" y1="55" x2="864.7" y2="510" stroke="#e5e7eb"/>
<text x="864.7" y="530" text-anchor="middle" font-family="Arial" font-size="11">100</text>
<line x1="90" y1="510.0" x2="920" y2="510.0" stroke="#e5e7eb"/>
<text x="80" y="514.0" text-anchor="end" font-family="Arial" font-size="11">0.1</text>
<line x1="90" y1="437.3" x2="920" y2="437.3" stroke="#e5e7eb"/>
<text x="80" y="441.3" text-anchor="end" font-family="Arial" font-size="11">1</text>
<line x1="90" y1="364.6" x2="920" y2="364.6" stroke="#e5e7eb"/>
<text x="80" y="368.6" text-anchor="end" font-family="Arial" font-size="11">10</text>
<line x1="90" y1="292.0" x2="920" y2="292.0" stroke="#e5e7eb"/>
<text x="80" y="296.0" text-anchor="end" font-family="Arial" font-size="11">100</text>
<line x1="90" y1="219.3" x2="920" y2="219.3" stroke="#e5e7eb"/>
<text x="80" y="223.3" text-anchor="end" font-family="Arial" font-size="11">1000</text>
<line x1="90" y1="146.6" x2="920" y2="146.6" stroke="#e5e7eb"/>
<text x="80" y="150.6" text-anchor="end" font-family="Arial" font-size="11">10000</text>
<line x1="90" y1="73.9" x2="920" y2="73.9" stroke="#e5e7eb"/>
<text x="80" y="77.9" text-anchor="end" font-family="Arial" font-size="11">100000</text>
<polyline points="126.9,377.2 214.9,342.5 311.3,304.5 399.3,269.8 495.8,231.8 583.8,197.1 680.2,159.1 768.2,124.5 864.7,86.5 917.5,65.6" fill="none" stroke="#dc2626" stroke-width="2"/>
<text x="925.5" y="57.6" font-family="Arial" font-size="11" fill="#dc2626">ridge / tensor-core peak</text>
<circle cx="361.0" cy="302.5" r="5" fill="#2563eb"/>
<text x="369.0" y="295.5" font-family="Arial" font-size="10">bias relu fused</text>
<circle cx="302.3" cy="328.0" r="5" fill="#2563eb"/>
<text x="310.3" y="321.0" font-family="Arial" font-size="10">bias relu unfused</text>
<circle cx="455.7" cy="278.4" r="5" fill="#2563eb"/>
<text x="463.7" y="271.4" font-family="Arial" font-size="10">ln bwd residual fused</text>
<circle cx="448.1" cy="281.6" r="5" fill="#2563eb"/>
<text x="456.1" y="274.6" font-family="Arial" font-size="10">ln bwd residual unfused</text>
<circle cx="490.4" cy="268.0" r="5" fill="#2563eb"/>
<text x="498.4" y="261.0" font-family="Arial" font-size="10">residual ln fused</text>
<circle cx="461.6" cy="281.2" r="5" fill="#2563eb"/>
<text x="469.6" y="274.2" font-family="Arial" font-size="10">residual ln unfused</text>
<circle cx="860.8" cy="133.5" r="6" fill="#dc2626"/>
<text x="868.8" y="126.5" font-family="Arial" font-size="10">batched qkv</text>
<circle cx="843.7" cy="133.9" r="6" fill="#dc2626"/>
<text x="851.7" y="126.9" font-family="Arial" font-size="10">bt ff1</text>
<circle cx="871.1" cy="126.2" r="6" fill="#dc2626"/>
<text x="879.1" y="119.2" font-family="Arial" font-size="10">fwd ff1</text>
<circle cx="844.1" cy="132.1" r="6" fill="#dc2626"/>
<text x="852.1" y="125.1" font-family="Arial" font-size="10">splitk dW1</text>
<circle cx="844.0" cy="131.3" r="6" fill="#dc2626"/>
<text x="852.0" y="124.3" font-family="Arial" font-size="10">splitk dW2</text>
<circle cx="727.9" cy="183.3" r="6" fill="#dc2626"/>
<text x="735.9" y="176.3" font-family="Arial" font-size="10">splitk dWout</text>
<circle cx="835.5" cy="135.3" r="6" fill="#dc2626"/>
<text x="843.5" y="128.3" font-family="Arial" font-size="10">splitk dWout</text>
<circle cx="811.4" cy="138.8" r="6" fill="#dc2626"/>
<text x="819.4" y="131.8" font-family="Arial" font-size="10">splitk qkv</text>
<circle cx="827.5" cy="113.8" r="6" fill="#dc2626"/>
<text x="835.5" y="106.8" font-family="Arial" font-size="10">splitk qkv</text>
<circle cx="100" cy="545" r="5" fill="#2563eb"/>
<text x="112" y="549" font-family="Arial" font-size="12">fusion kernels</text>
<circle cx="235" cy="545" r="6" fill="#dc2626"/>
<text x="248" y="549" font-family="Arial" font-size="12">training GEMM hotspots</text>
<text x="90" y="592" font-family="Arial" font-size="11" fill="#374151">Ceilings: 672 GB/s memory, 130000 GFLOP/s tensor-core compute. Bytes/times from NCU fusion and hotspot profiles.</text>
</svg>
