<svg xmlns="http://www.w3.org/2000/svg" width="820" height="470" viewBox="0 0 820 470">
<rect width="100%" height="100%" fill="white"/>
<text x="410.0" y="28" text-anchor="middle" font-family="Arial" font-size="18" font-weight="700">Strong Scaling Speedup</text>
<text x="410.0" y="452" text-anchor="middle" font-family="Arial" font-size="13">MPI ranks</text>
<text x="18" y="227.5" transform="rotate(-90 18 227.5)" text-anchor="middle" font-family="Arial" font-size="13">Speedup vs 1 rank</text>
<line x1="80" y1="55" x2="80" y2="400" stroke="#111827"/>
<line x1="80" y1="400" x2="660" y2="400" stroke="#111827"/>
<line x1="75" y1="400.0" x2="660" y2="400.0" stroke="#e5e7eb"/>
<text x="70" y="404.0" text-anchor="end" font-family="Arial" font-size="11">0.00</text>
<line x1="75" y1="313.8" x2="660" y2="313.8" stroke="#e5e7eb"/>
<text x="70" y="317.8" text-anchor="end" font-family="Arial" font-size="11">1.12</text>
<line x1="75" y1="227.5" x2="660" y2="227.5" stroke="#e5e7eb"/>
<text x="70" y="231.5" text-anchor="end" font-family="Arial" font-size="11">2.24</text>
<line x1="75" y1="141.2" x2="660" y2="141.2" stroke="#e5e7eb"/>
<text x="70" y="145.2" text-anchor="end" font-family="Arial" font-size="11">3.36</text>
<line x1="75" y1="55.0" x2="660" y2="55.0" stroke="#e5e7eb"/>
<text x="70" y="59.0" text-anchor="end" font-family="Arial" font-size="11">4.48</text>
<line x1="80.0" y1="400" x2="80.0" y2="405" stroke="#111827"/>
<text x="80.0" y="422" text-anchor="middle" font-family="Arial" font-size="12">1</text>
<line x1="273.3" y1="400" x2="273.3" y2="405" stroke="#111827"/>
<text x="273.3" y="422" text-anchor="middle" font-family="Arial" font-size="12">2</text>
<line x1="660.0" y1="400" x2="660.0" y2="405" stroke="#111827"/>
<text x="660.0" y="422" text-anchor="middle" font-family="Arial" font-size="12">4</text>
<polyline points="80.0,323.0 273.3,246.0 660.0,92.0" fill="none" stroke="#111827" stroke-width="2" stroke-dasharray="5 5"/>
<text x="678" y="73" font-family="Arial" font-size="12">ideal</text>
<polyline points="80.0,323.0 273.3,353.6 660.0,350.2" fill="none" stroke="#2563eb" stroke-width="3"/>
<circle cx="80.0" cy="323.0" r="4" fill="#2563eb"/>
<circle cx="273.3" cy="353.6" r="4" fill="#2563eb"/>
<circle cx="660.0" cy="350.2" r="4" fill="#2563eb"/>
<line x1="678" y1="96" x2="702" y2="96" stroke="#2563eb" stroke-width="3"/>
<text x="710" y="100" font-family="Arial" font-size="12">H128 blocking</text>
<polyline points="273.3,352.9 660.0,349.4" fill="none" stroke="#60a5fa" stroke-width="3"/>
<circle cx="273.3" cy="352.9" r="4" fill="#60a5fa"/>
<circle cx="660.0" cy="349.4" r="4" fill="#60a5fa"/>
<line x1="678" y1="118" x2="702" y2="118" stroke="#60a5fa" stroke-width="3"/>
<text x="710" y="122" font-family="Arial" font-size="12">H128 overlap</text>
<polyline points="80.0,323.0 273.3,363.8 660.0,363.5" fill="none" stroke="#dc2626" stroke-width="3"/>
<circle cx="80.0" cy="323.0" r="4" fill="#dc2626"/>
<circle cx="273.3" cy="363.8" r="4" fill="#dc2626"/>
<circle cx="660.0" cy="363.5" r="4" fill="#dc2626"/>
<line x1="678" y1="140" x2="702" y2="140" stroke="#dc2626" stroke-width="3"/>
<text x="710" y="144" font-family="Arial" font-size="12">H256 blocking</text>
<polyline points="273.3,351.2 660.0,345.6" fill="none" stroke="#f97316" stroke-width="3"/>
<circle cx="273.3" cy="351.2" r="4" fill="#f97316"/>
<circle cx="660.0" cy="345.6" r="4" fill="#f97316"/>
<line x1="678" y1="162" x2="702" y2="162" stroke="#f97316" stroke-width="3"/>
<text x="710" y="166" font-family="Arial" font-size="12">H256 overlap</text>
</svg>
