<svg xmlns="http://www.w3.org/2000/svg" width="760" height="430" viewBox="0 0 760 430">
<rect width="100%" height="100%" fill="white"/>
<text x="380.0" y="28" text-anchor="middle" font-family="Arial" font-size="18" font-weight="700">Default Model: Bucketed Overlap Sweep</text>
<text x="18" y="202.5" transform="rotate(-90 18 202.5)" text-anchor="middle" font-family="Arial" font-size="13">Throughput (M tokens/s)</text>
<line x1="80" y1="55" x2="80" y2="350" stroke="#111827"/>
<line x1="80" y1="350" x2="730" y2="350" stroke="#111827"/>
<line x1="75" y1="350.0" x2="730" y2="350.0" stroke="#e5e7eb"/>
<text x="70" y="354.0" text-anchor="end" font-family="Arial" font-size="11">0.00</text>
<line x1="75" y1="276.2" x2="730" y2="276.2" stroke="#e5e7eb"/>
<text x="70" y="280.2" text-anchor="end" font-family="Arial" font-size="11">1.42</text>
<line x1="75" y1="202.5" x2="730" y2="202.5" stroke="#e5e7eb"/>
<text x="70" y="206.5" text-anchor="end" font-family="Arial" font-size="11">2.85</text>
<line x1="75" y1="128.7" x2="730" y2="128.7" stroke="#e5e7eb"/>
<text x="70" y="132.7" text-anchor="end" font-family="Arial" font-size="11">4.27</text>
<line x1="75" y1="55.0" x2="730" y2="55.0" stroke="#e5e7eb"/>
<text x="70" y="59.0" text-anchor="end" font-family="Arial" font-size="11">5.70</text>
<rect x="98.0" y="97.7" width="108.4" height="252.3" fill="#3b82f6"/>
<text x="152.2" y="91.7" text-anchor="middle" font-family="Arial" font-size="11">4.87</text>
<text x="152.2" y="370" text-anchor="middle" font-family="Arial" font-size="11">blocking</text>
<rect x="224.4" y="108.7" width="108.4" height="241.3" fill="#3b82f6"/>
<text x="278.6" y="102.7" text-anchor="middle" font-family="Arial" font-size="11">4.66</text>
<text x="278.6" y="370" text-anchor="middle" font-family="Arial" font-size="11">0 KB</text>
<rect x="350.8" y="96.7" width="108.4" height="253.3" fill="#3b82f6"/>
<text x="405.0" y="90.7" text-anchor="middle" font-family="Arial" font-size="11">4.89</text>
<text x="405.0" y="370" text-anchor="middle" font-family="Arial" font-size="11">64 KB</text>
<rect x="477.2" y="93.5" width="108.4" height="256.5" fill="#3b82f6"/>
<text x="531.4" y="87.5" text-anchor="middle" font-family="Arial" font-size="11">4.96</text>
<text x="531.4" y="370" text-anchor="middle" font-family="Arial" font-size="11">256 KB</text>
<rect x="603.6" y="143.8" width="108.4" height="206.2" fill="#3b82f6"/>
<text x="657.8" y="137.8" text-anchor="middle" font-family="Arial" font-size="11">3.98</text>
<text x="657.8" y="370" text-anchor="middle" font-family="Arial" font-size="11">1024 KB</text>
</svg>
