<svg xmlns="http://www.w3.org/2000/svg" width="900" height="480" viewBox="0 0 900 480">
<rect width="100%" height="100%" fill="white"/>
<text x="450.0" y="30" text-anchor="middle" font-family="Arial" font-size="18" font-weight="700">h512 communication bucket check</text>
<text x="18" y="217.0" transform="rotate(-90 18 217.0)" text-anchor="middle" font-family="Arial" font-size="13">throughput (m tokens/s)</text>
<line x1="88" y1="60" x2="88" y2="374" stroke="#111827"/>
<line x1="88" y1="374" x2="870" y2="374" stroke="#111827"/>
<line x1="83" y1="374.0" x2="870" y2="374.0" stroke="#e5e7eb"/>
<text x="78" y="378.0" text-anchor="end" font-family="Arial" font-size="11">0.00</text>
<line x1="83" y1="295.5" x2="870" y2="295.5" stroke="#e5e7eb"/>
<text x="78" y="299.5" text-anchor="end" font-family="Arial" font-size="11">0.26</text>
<line x1="83" y1="217.0" x2="870" y2="217.0" stroke="#e5e7eb"/>
<text x="78" y="221.0" text-anchor="end" font-family="Arial" font-size="11">0.52</text>
<line x1="83" y1="138.5" x2="870" y2="138.5" stroke="#e5e7eb"/>
<text x="78" y="142.5" text-anchor="end" font-family="Arial" font-size="11">0.78</text>
<line x1="83" y1="60.0" x2="870" y2="60.0" stroke="#e5e7eb"/>
<text x="78" y="64.0" text-anchor="end" font-family="Arial" font-size="11">1.04</text>
<rect x="124.0" y="197.3" width="104.3" height="176.7" fill="#2563eb"/>
<text x="176.2" y="192.3" text-anchor="middle" font-family="Arial" font-size="10">0.58</text>
<rect x="230.3" y="112.3" width="104.3" height="261.7" fill="#059669"/>
<text x="282.5" y="107.3" text-anchor="middle" font-family="Arial" font-size="10">0.86</text>
<text x="230.3" y="398" text-anchor="middle" font-family="Arial" font-size="12">1024 kb</text>
<rect x="372.7" y="201.5" width="104.3" height="172.5" fill="#2563eb"/>
<text x="424.8" y="196.5" text-anchor="middle" font-family="Arial" font-size="10">0.57</text>
<rect x="479.0" y="107.9" width="104.3" height="266.1" fill="#059669"/>
<text x="531.2" y="102.9" text-anchor="middle" font-family="Arial" font-size="10">0.88</text>
<text x="479.0" y="398" text-anchor="middle" font-family="Arial" font-size="12">2048 kb</text>
<rect x="621.3" y="200.5" width="104.3" height="173.5" fill="#2563eb"/>
<text x="673.5" y="195.5" text-anchor="middle" font-family="Arial" font-size="10">0.57</text>
<rect x="727.7" y="108.1" width="104.3" height="265.9" fill="#059669"/>
<text x="779.8" y="103.1" text-anchor="middle" font-family="Arial" font-size="10">0.88</text>
<text x="727.7" y="398" text-anchor="middle" font-family="Arial" font-size="12">4096 kb</text>
<rect x="98" y="435" width="12" height="12" fill="#2563eb"/>
<text x="116" y="446" font-family="Arial" font-size="12">pinned overlap</text>
<rect x="278" y="435" width="12" height="12" fill="#059669"/>
<text x="296" y="446" font-family="Arial" font-size="12">openmp overlap</text>
</svg>
