<svg xmlns="http://www.w3.org/2000/svg" width="900" height="560" viewBox="0 0 900 560">
<rect width="100%" height="100%" fill="white"/>
<text x="450.0" y="30" text-anchor="middle" font-family="Arial" font-size="18" font-weight="700">Fusion Kernels: Empirical Roofline</text>
<text x="450.0" y="535" text-anchor="middle" font-family="Arial" font-size="13">Arithmetic intensity (FLOP/byte, log scale)</text>
<text x="22" y="265.0" transform="rotate(-90 22 265.0)" text-anchor="middle" font-family="Arial" font-size="13">Performance (GFLOP/s, log scale)</text>
<line x1="90" y1="55" x2="90" y2="475" stroke="#111827"/>
<line x1="90" y1="475" x2="865" y2="475" stroke="#111827"/>
<line x1="133.1" y1="55" x2="133.1" y2="475" stroke="#e5e7eb"/>
<text x="133.1" y="495" text-anchor="middle" font-family="Arial" font-size="11">0.01</text>
<line x1="235.8" y1="55" x2="235.8" y2="475" stroke="#e5e7eb"/>
<text x="235.8" y="495" text-anchor="middle" font-family="Arial" font-size="11">0.03</text>
<line x1="348.3" y1="55" x2="348.3" y2="475" stroke="#e5e7eb"/>
<text x="348.3" y="495" text-anchor="middle" font-family="Arial" font-size="11">0.1</text>
<line x1="451.0" y1="55" x2="451.0" y2="475" stroke="#e5e7eb"/>
<text x="451.0" y="495" text-anchor="middle" font-family="Arial" font-size="11">0.3</text>
<line x1="563.6" y1="55" x2="563.6" y2="475" stroke="#e5e7eb"/>
<text x="563.6" y="495" text-anchor="middle" font-family="Arial" font-size="11">1</text>
<line x1="666.3" y1="55" x2="666.3" y2="475" stroke="#e5e7eb"/>
<text x="666.3" y="495" text-anchor="middle" font-family="Arial" font-size="11">3</text>
<line x1="778.9" y1="55" x2="778.9" y2="475" stroke="#e5e7eb"/>
<text x="778.9" y="495" text-anchor="middle" font-family="Arial" font-size="11">10</text>
<line x1="90" y1="475.0" x2="865" y2="475.0" stroke="#e5e7eb"/>
<text x="80" y="479.0" text-anchor="end" font-family="Arial" font-size="11">0.1</text>
<line x1="90" y1="396.6" x2="865" y2="396.6" stroke="#e5e7eb"/>
<text x="80" y="400.6" text-anchor="end" font-family="Arial" font-size="11">1</text>
<line x1="90" y1="318.2" x2="865" y2="318.2" stroke="#e5e7eb"/>
<text x="80" y="322.2" text-anchor="end" font-family="Arial" font-size="11">10</text>
<line x1="90" y1="239.9" x2="865" y2="239.9" stroke="#e5e7eb"/>
<text x="80" y="243.9" text-anchor="end" font-family="Arial" font-size="11">100</text>
<line x1="90" y1="161.5" x2="865" y2="161.5" stroke="#e5e7eb"/>
<text x="80" y="165.5" text-anchor="end" font-family="Arial" font-size="11">1000</text>
<line x1="90" y1="83.1" x2="865" y2="83.1" stroke="#e5e7eb"/>
<text x="80" y="87.1" text-anchor="end" font-family="Arial" font-size="11">10000</text>
<polyline points="133.1,331.8 235.8,294.4 348.3,253.4 451.0,216.0 563.6,175.0 666.3,137.6 778.9,96.6 861.7,66.5" fill="none" stroke="#dc2626" stroke-width="2"/>
<text x="861.7" y="58.5" font-family="Arial" font-size="11" fill="#dc2626">FP32 peak</text>
<text x="327.5" y="253.0" font-family="Arial" font-size="11" fill="#dc2626">memory roof</text>
<circle cx="355.0" cy="268.8" r="5" fill="#2563eb"/>
<text x="362.0" y="261.8" font-family="Arial" font-size="10">bias relu fused</text>
<circle cx="337.9" cy="278.7" r="5" fill="#2563eb"/>
<text x="344.9" y="271.7" font-family="Arial" font-size="10">bias relu unfused</text>
<circle cx="571.3" cy="244.2" r="5" fill="#7c3aed"/>
<text x="578.3" y="237.2" font-family="Arial" font-size="10">ln bwd residual fused</text>
<circle cx="556.8" cy="245.7" r="5" fill="#7c3aed"/>
<text x="563.8" y="238.7" font-family="Arial" font-size="10">ln bwd residual unfused</text>
<circle cx="556.9" cy="213.7" r="5" fill="#059669"/>
<text x="563.9" y="206.7" font-family="Arial" font-size="10">residual ln fused</text>
<circle cx="525.8" cy="227.8" r="5" fill="#059669"/>
<text x="532.8" y="220.8" font-family="Arial" font-size="10">residual ln unfused</text>
<text x="90" y="552" font-family="Arial" font-size="11" fill="#374151">Ceilings: 672 GB/s memory, 16300 GFLOP/s FP32. FLOPs are analytical approximations; bytes and times are from NCU job 83615.</text>
</svg>
